<svg xmlns="http://www.w3.org/2000/svg" xmlns:xlink="http://www.w3.org/1999/xlink" width="170.591" height="30.569" viewBox="0 0 170.591 30.569"><defs><style>.a{fill:none;}.b{clip-path:url(#a);}.c{fill:#fcb646;}.d{fill:#44479d;}</style><clipPath id="a"><rect class="a" width="170.591" height="30.569"/></clipPath></defs><g transform="translate(-267.378 -142.547)"><g class="b" transform="translate(267.378 142.547)"><path class="c" d="M369.029,168.256a5.109,5.109,0,1,0-9.837,0Z" transform="translate(-306.062 -150.662)"/><path class="d" d="M532.889,173.123H510.961a.345.345,0,0,1-.345-.344V160.5a.345.345,0,0,1,.345-.345h8.957a.344.344,0,0,0,.344-.344v-3.927a.344.344,0,0,0-.344-.345H506.33a.345.345,0,0,0-.344.345v16.785a.344.344,0,0,1-.344.344H493.36a.345.345,0,0,1-.345-.344V142.91a.345.345,0,0,1,.345-.344h39.529a.344.344,0,0,1,.344.344v29.869a.344.344,0,0,1-.344.344" transform="translate(-362.642 -142.555)"/><path class="d" d="M457.244,173.115H417.681a.328.328,0,0,1-.328-.328V142.875a.328.328,0,0,1,.328-.328H430a.329.329,0,0,1,.328.328v16.941a.327.327,0,0,0,.327.328h13.621a.327.327,0,0,0,.328-.328v-3.965a.328.328,0,0,0-.328-.328l-9,0a.328.328,0,0,1-.328-.328l0-12.316a.328.328,0,0,1,.328-.328l21.977-.005a.328.328,0,0,1,.327.328v29.91a.328.328,0,0,1-.327.328" transform="translate(-330.698 -142.547)"/><path class="d" d="M307.184,173.118h-39.5a.308.308,0,0,1-.309-.309V160.456a.309.309,0,0,1,.309-.309h4.3a.308.308,0,0,0,.309-.308v-4.006a.308.308,0,0,0-.309-.308H267.7a.309.309,0,0,1-.309-.309V142.863a.309.309,0,0,1,.309-.309h17.259a.309.309,0,0,1,.309.309v16.977a.308.308,0,0,0,.309.308h8.637a.308.308,0,0,0,.309-.308v-4.006a.308.308,0,0,0-.309-.308H290.2a.308.308,0,0,1-.308-.309V142.863a.309.309,0,0,1,.308-.309h16.981a.308.308,0,0,1,.308.309V172.81a.308.308,0,0,1-.308.309" transform="translate(-267.378 -142.55)"/><path class="d" d="M378.334,159.749V142.964a.4.4,0,0,0-.4-.4H343.415a.4.4,0,0,0-.4.4V155.13a.4.4,0,0,0,.4.4h5.848a.4.4,0,0,0,.365-.241,8.521,8.521,0,0,1,2.065-2.822,8.416,8.416,0,0,1,8.358-1.752l.026.007v0a8.414,8.414,0,0,1,5.628,9.082.4.4,0,0,1-.393.339l-21.9,0a.4.4,0,0,0-.4.4v12.17a.4.4,0,0,0,.4.4h39.127a.4.4,0,0,0,.4-.4V160.554a.4.4,0,0,0-.4-.4h-3.807a.4.4,0,0,1-.4-.4" transform="translate(-299.311 -142.553)"/></g></g></svg>