<?xml version="1.0" encoding="utf-8"?>
<!-- Generator: Adobe Illustrator 23.0.5, SVG Export Plug-In . SVG Version: 6.00 Build 0)  -->
<svg version="1.1" id="Layer_1" xmlns="http://www.w3.org/2000/svg" xmlns:xlink="http://www.w3.org/1999/xlink" x="0px" y="0px"
	 width="156.5px" height="39px" viewBox="0 0 156.5 39" style="enable-background:new 0 0 156.5 39;" xml:space="preserve">
<style type="text/css">
	.st0{clip-path:url(#SVGID_2_);enable-background:new    ;}
	.st1{clip-path:url(#SVGID_4_);fill:#CFA477;}
	.st2{clip-path:url(#SVGID_4_);fill:#0F2135;}
</style>
<g>
	<defs>
		<rect id="SVGID_1_" y="0.2" width="156.3" height="38.8"/>
	</defs>
	<clipPath id="SVGID_2_">
		<use xlink:href="#SVGID_1_"  style="overflow:visible;"/>
	</clipPath>
	<g class="st0">
		<g>
			<defs>
				<rect id="SVGID_3_" width="156.5" height="39"/>
			</defs>
			<clipPath id="SVGID_4_">
				<use xlink:href="#SVGID_3_"  style="overflow:visible;"/>
			</clipPath>
			<path class="st1" d="M25.5,1.8c-5.2,0-10.1,2.9-12.6,7.5c0,0-10.3,17.6-10.7,18.3C1.8,28.5,1,29.2,0,29.6
				c0.1,0.3,0.3,0.6,0.4,0.9H1c0.7,0,1.3-0.3,1.7-0.9l3.5-5.2h6.3c1.5,0,2.9-0.8,3.6-2.1l7.9-13.5c1.5-2.5,3.2-4.8,5.2-6.9l0,0H25.5
				z"/>
			<path class="st2" d="M41.2,6.2v12.4c1,0.1,1.8,0.2,2.5,0.2c2.4,0,4.3-0.6,5.6-1.9c1.3-1.2,1.9-3,1.9-5.3c0-2.5-0.6-4.5-1.8-6
				c-1.2-1.5-2.8-2.3-4.7-2.3c-1.1,0-1.9,0.3-2.5,0.8C41.5,4.6,41.2,5.3,41.2,6.2 M44.1,29.8v0.7H32.8v-0.7c1.9-0.5,2.8-1.8,2.8-3.8
				V6.7c0-2-0.9-3.3-2.8-3.7V2.3c4.3-0.5,8.3-0.8,12-0.8c3.7,0,6.7,0.9,9.1,2.6c2.4,1.7,3.5,3.9,3.5,6.6c0,2.2-0.6,4.1-1.9,5.7
				c-1.3,1.6-2.9,2.8-4.7,3.5c-1.9,0.7-3.9,1.1-6.1,1.1c-1.1,0-2.2-0.1-3.4-0.4V26c0,0.9,0.3,1.7,0.8,2.4
				C42.5,29.1,43.2,29.6,44.1,29.8"/>
			<path class="st2" d="M63.6,0.2v26.2c0,1.7,0.7,2.8,2.2,3.4v0.7h-9.6v-0.7c1.3-0.6,2-1.7,2-3.4V7.3c0-1.9-0.8-3.1-2.3-3.5V3.1
				c2.7-0.3,5.1-1.3,7-2.9H63.6z"/>
			<path class="st2" d="M73.7,12.2c-1,0-1.9,0.5-2.6,1.4c-0.7,0.9-1.2,2.3-1.3,4.1h7.5c0-1.7-0.3-3-0.9-4
				C75.7,12.7,74.8,12.2,73.7,12.2 M82.5,24.9c-0.6,1.9-1.6,3.4-3.2,4.5c-1.6,1.1-3.3,1.7-5.2,1.7c-2.5,0-4.7-0.9-6.5-2.6
				c-1.9-1.7-2.8-4.1-2.8-7.2c0-3,0.9-5.6,2.8-7.8c1.9-2.1,4.2-3.2,7.1-3.2c2.3,0,4.2,0.8,5.8,2.2c1.5,1.5,2.3,3.4,2.3,5.8v1h-13
				c0.1,2.7,0.7,4.7,1.9,6.1c1.2,1.4,2.8,2.1,4.8,2.1c2.3,0,4.1-1,5.5-3L82.5,24.9z"/>
			<path class="st2" d="M94,27.8c1.1,0,2.3-0.5,3.5-1.5V15.2c0-0.9-0.3-1.6-0.8-2.1c-0.5-0.6-1.3-0.8-2.2-0.8
				c-1.6,0-2.9,0.8-3.9,2.4c-1,1.6-1.5,3.5-1.5,5.8c0,2.3,0.4,4.1,1.3,5.4C91.2,27.1,92.4,27.8,94,27.8 M90.9,31.1
				c-2,0-3.7-0.8-5.2-2.5c-1.4-1.7-2.2-3.8-2.2-6.3c0-3.2,1-6,3.1-8.3c2-2.3,4.6-3.5,7.7-3.5c1.1,0,2.1,0.2,3.1,0.5V7.3
				c0-1.9-0.9-3-2.6-3.5V3.1c2.8-0.3,5.2-1.3,7.1-2.9h0.7v24.6c0,1.9,0.7,3.2,2.2,3.7v0.7c-2.2,0.2-4.4,0.9-6.7,2.1h-0.7v-1.8
				c0-0.2,0-0.5,0-1c0-0.4,0-0.7,0-0.8l-0.1,0c-0.8,0.9-1.8,1.7-3,2.3C93.3,30.7,92.1,31.1,90.9,31.1"/>
			<path class="st2" d="M112.6,12.1c-2.1,0-3.1,1.6-3.1,4.9c0,1.5,0.3,2.7,0.8,3.6c0.5,0.9,1.3,1.3,2.3,1.3c1,0,1.9-0.4,2.4-1.3
				c0.6-0.9,0.9-2.1,0.9-3.6C115.8,13.7,114.7,12.1,112.6,12.1 M107.4,34c0,1,0.6,1.7,1.8,2.3c1.2,0.5,2.7,0.8,4.7,0.7
				c1.8,0,3.2-0.3,4.3-0.8c1.1-0.5,1.6-1.1,1.6-1.9c0-0.3-0.1-0.6-0.2-0.9c-0.1-0.3-0.4-0.5-0.7-0.7s-0.6-0.4-0.9-0.6
				c-0.3-0.2-0.7-0.3-1.3-0.5c-0.6-0.2-1.1-0.3-1.4-0.4c-0.3-0.1-0.9-0.2-1.6-0.4c-0.7-0.2-1.3-0.3-1.6-0.4
				C108.9,31,107.4,32.1,107.4,34 M124.1,32.3c0,2-1,3.5-3.1,4.7c-2.1,1.2-4.7,1.8-7.8,1.8c-1.2,0-2.3-0.1-3.4-0.2
				c-1.1-0.2-2.2-0.4-3.2-0.7c-1-0.3-1.8-0.8-2.5-1.4c-0.6-0.6-0.9-1.3-0.9-2.1c0-1,0.7-1.8,2-2.6c1.3-0.8,3.1-1.3,5.1-1.6
				c-2.5-0.7-4-1.7-4.6-3.1v-0.5c2.2-0.8,4-1.8,5.4-3.1c-2-0.3-3.6-1-4.9-2.2c-1.3-1.2-1.9-2.6-1.9-4.2c0-1.8,0.8-3.3,2.4-4.6
				c1.6-1.3,3.6-1.9,5.9-1.9c2.4,0,4.4,0.7,6.1,2c1.3-1.9,2.8-2.9,4.5-2.9c0.6,0,1.2,0.2,1.6,0.6c0.4,0.4,0.7,0.9,0.7,1.5
				c0,0.6-0.2,1.1-0.6,1.5c-0.4,0.4-0.9,0.6-1.4,0.6c-0.5,0-1-0.2-1.6-0.6c-0.5-0.4-1-0.6-1.3-0.6c-0.4,0-0.7,0.2-1.1,0.5
				c1.1,1.2,1.7,2.5,1.7,3.9c0,1.8-0.8,3.3-2.5,4.6c-1.7,1.3-3.7,1.9-6,1.9h-0.2c-0.5,0.5-0.7,0.9-0.7,1.3c0,0.4,0.4,0.8,1.3,1.1
				c0.9,0.3,1.9,0.6,3.1,0.9c1.2,0.3,2.4,0.6,3.7,1c1.2,0.4,2.3,1,3.1,1.8C123.7,30.2,124.1,31.2,124.1,32.3"/>
			<path class="st2" d="M132.3,12.2c-1,0-1.9,0.5-2.6,1.4c-0.7,0.9-1.2,2.3-1.3,4.1h7.5c0-1.7-0.3-3-0.9-4
				C134.3,12.7,133.4,12.2,132.3,12.2 M141.1,24.9c-0.6,1.9-1.6,3.4-3.2,4.5c-1.6,1.1-3.3,1.7-5.2,1.7c-2.5,0-4.7-0.9-6.5-2.6
				c-1.9-1.7-2.8-4.1-2.8-7.2c0-3,0.9-5.6,2.8-7.8c1.9-2.1,4.2-3.2,7.1-3.2c2.3,0,4.2,0.8,5.8,2.2c1.5,1.5,2.3,3.4,2.3,5.8v1h-13
				c0.1,2.7,0.7,4.7,1.9,6.1c1.2,1.4,2.8,2.1,4.8,2.1c2.3,0,4.1-1,5.5-3L141.1,24.9z"/>
			<path class="st2" d="M148.1,12.3c0,0.3-0.1,0.9-0.2,1.9l0.2,0.1c0.6-1,1.3-2,2.4-2.8c1-0.8,2-1.2,3-1.2c0.8,0,1.5,0.3,2,0.8
				c0.6,0.6,0.8,1.2,0.8,2.1c0,0.8-0.2,1.4-0.7,1.9c-0.5,0.5-1.1,0.8-1.7,0.8c-0.6,0-1.3-0.3-2-0.9c-0.7-0.6-1.3-0.9-1.8-0.9
				c-0.5,0-1.2,0.5-2,1.4v10.8c0,1.5,0.8,2.6,2.3,3.4v0.7h-9.9v-0.7c1.5-0.7,2.3-1.9,2.3-3.4v-9.2c0-1-0.2-1.8-0.5-2.4
				c-0.4-0.5-0.9-0.9-1.8-1.1V13c1.2-0.2,2.5-0.5,3.8-1c1.3-0.5,2.3-1.2,3.1-1.9h0.7V12.3z"/>
			<path class="st1" d="M38.8,35.3c-0.1-0.1-0.1-0.2-0.2-0.3c-0.1-0.1-0.2-0.1-0.3-0.2c-0.1,0-0.2-0.1-0.4-0.1c-0.2,0-0.4,0-0.6,0.1
				c-0.2,0.1-0.3,0.2-0.4,0.4c-0.1,0.2-0.2,0.3-0.2,0.5c0,0.2-0.1,0.4-0.1,0.6c0,0.2,0,0.4,0.1,0.6c0,0.2,0.1,0.4,0.2,0.5
				c0.1,0.2,0.2,0.3,0.4,0.4c0.2,0.1,0.4,0.1,0.6,0.1c0.3,0,0.6-0.1,0.8-0.3c0.2-0.2,0.3-0.5,0.3-0.8h1c0,0.3-0.1,0.6-0.2,0.8
				c-0.1,0.2-0.3,0.4-0.4,0.6c-0.2,0.2-0.4,0.3-0.6,0.4c-0.2,0.1-0.5,0.1-0.8,0.1c-0.4,0-0.7-0.1-1-0.2c-0.3-0.1-0.5-0.3-0.7-0.5
				c-0.2-0.2-0.4-0.5-0.5-0.8c-0.1-0.3-0.2-0.6-0.2-1c0-0.4,0.1-0.7,0.2-1c0.1-0.3,0.3-0.6,0.5-0.8c0.2-0.2,0.4-0.4,0.7-0.5
				c0.3-0.1,0.6-0.2,1-0.2c0.3,0,0.5,0,0.7,0.1c0.2,0.1,0.4,0.2,0.6,0.3c0.2,0.1,0.3,0.3,0.5,0.5c0.1,0.2,0.2,0.5,0.2,0.7h-1
				C38.9,35.5,38.9,35.4,38.8,35.3"/>
			<polygon class="st1" points="44.1,34.1 44.1,35.9 46,35.9 46,34.1 47,34.1 47,38.8 46,38.8 46,36.8 44.1,36.8 44.1,38.8 43,38.8 
				43,34.1 			"/>
			<path class="st1" d="M52.7,37l-0.6-1.8h0L51.4,37H52.7z M52.6,34.1l1.8,4.8h-1.1L53,37.8h-1.8l-0.4,1.1h-1.1l1.8-4.8H52.6z"/>
			<path class="st1" d="M59.3,36.2c0.2,0,0.4-0.1,0.5-0.2C60,36,60,35.8,60,35.5c0-0.2-0.1-0.4-0.2-0.5c-0.1-0.1-0.3-0.2-0.5-0.2
				h-1.2v1.3H59.3z M59.7,34.1c0.2,0,0.4,0,0.6,0.1c0.2,0.1,0.3,0.2,0.4,0.3c0.1,0.1,0.2,0.3,0.3,0.4c0.1,0.2,0.1,0.3,0.1,0.5
				c0,0.3-0.1,0.5-0.2,0.7c-0.1,0.2-0.3,0.4-0.6,0.5v0c0.1,0,0.2,0.1,0.3,0.2c0.1,0.1,0.2,0.2,0.2,0.3c0.1,0.1,0.1,0.2,0.1,0.3
				c0,0.1,0,0.2,0,0.4c0,0.1,0,0.2,0,0.3c0,0.1,0,0.2,0,0.3c0,0.1,0,0.2,0.1,0.3c0,0.1,0.1,0.2,0.1,0.2h-1.1
				c-0.1-0.2-0.1-0.3-0.1-0.5c0-0.2,0-0.4-0.1-0.6c0-0.3-0.1-0.4-0.2-0.5C59.7,37,59.5,37,59.2,37h-1.1v1.9h-1v-4.8H59.7z"/>
			<rect x="64.5" y="34.1" class="st1" width="1" height="4.8"/>
			<polygon class="st1" points="68.4,34.9 68.4,34.1 72.3,34.1 72.3,34.9 70.8,34.9 70.8,38.8 69.8,38.8 69.8,34.9 			"/>
			<path class="st1" d="M76.9,37l-0.6-1.8h0L75.7,37H76.9z M76.9,34.1l1.8,4.8h-1.1l-0.4-1.1h-1.8L75,38.8H74l1.8-4.8H76.9z"/>
			<path class="st1" d="M83.5,38c0.1,0,0.2,0,0.3,0c0.1,0,0.2-0.1,0.2-0.1c0.1,0,0.1-0.1,0.2-0.2c0-0.1,0.1-0.2,0.1-0.3
				c0-0.2-0.1-0.4-0.2-0.5c-0.1-0.1-0.3-0.2-0.5-0.2h-1.1V38H83.5z M83.4,36c0.2,0,0.3,0,0.5-0.1c0.1-0.1,0.2-0.2,0.2-0.4
				c0-0.1,0-0.2-0.1-0.3c0-0.1-0.1-0.1-0.2-0.2c-0.1,0-0.1-0.1-0.2-0.1c-0.1,0-0.2,0-0.3,0h-1V36H83.4z M83.6,34.1
				c0.2,0,0.4,0,0.6,0.1c0.2,0,0.3,0.1,0.5,0.2c0.1,0.1,0.2,0.2,0.3,0.4c0.1,0.2,0.1,0.3,0.1,0.6c0,0.2-0.1,0.4-0.2,0.6
				c-0.1,0.2-0.3,0.3-0.5,0.4c0.3,0.1,0.5,0.2,0.7,0.4c0.1,0.2,0.2,0.5,0.2,0.8c0,0.2,0,0.4-0.1,0.6c-0.1,0.2-0.2,0.3-0.4,0.4
				c-0.2,0.1-0.3,0.2-0.5,0.2c-0.2,0.1-0.4,0.1-0.6,0.1h-2.3v-4.8H83.6z"/>
			<polygon class="st1" points="89.4,34.1 89.4,38 91.7,38 91.7,38.8 88.3,38.8 88.3,34.1 			"/>
			<polygon class="st1" points="98.1,34.1 98.1,34.9 95.6,34.9 95.6,36 97.9,36 97.9,36.8 95.6,36.8 95.6,38 98.2,38 98.2,38.8 
				94.6,38.8 94.6,34.1 			"/>
		</g>
	</g>
</g>
</svg>
